<mxfile host="65bd71144e">
    <diagram id="oUNkEAJw2R_UB62-8o5X" name="Page-1">
        <mxGraphModel dx="1161" dy="480" grid="0" gridSize="10" guides="1" tooltips="1" connect="1" arrows="1" fold="1" page="1" pageScale="1" pageWidth="827" pageHeight="1169" background="none" math="0" shadow="1">
            <root>
                <mxCell id="0"/>
                <mxCell id="1" parent="0"/>
                <mxCell id="Tx7A0U5lQLEVlmWzFri2-1" value="" style="rounded=0;whiteSpace=wrap;html=1;" parent="1" vertex="1">
                    <mxGeometry x="70" y="160" width="720" height="890" as="geometry"/>
                </mxCell>
                <mxCell id="Tx7A0U5lQLEVlmWzFri2-2" value="" style="rounded=0;whiteSpace=wrap;html=1;fillColor=#e3c800;fontColor=#000000;strokeColor=#B09500;" parent="1" vertex="1">
                    <mxGeometry x="90" y="210" width="680" height="95" as="geometry"/>
                </mxCell>
                <mxCell id="Tx7A0U5lQLEVlmWzFri2-3" value="" style="rounded=0;whiteSpace=wrap;html=1;fillColor=#f8cecc;strokeColor=#b85450;gradientColor=#ea6b66;" parent="1" vertex="1">
                    <mxGeometry x="90" y="325" width="680" height="530" as="geometry"/>
                </mxCell>
                <mxCell id="Tx7A0U5lQLEVlmWzFri2-11" value="" style="whiteSpace=wrap;html=1;aspect=fixed;fillColor=#e3c800;fontColor=#000000;strokeColor=#B09500;" parent="1" vertex="1">
                    <mxGeometry x="80" y="30" width="30" height="30" as="geometry"/>
                </mxCell>
                <mxCell id="Tx7A0U5lQLEVlmWzFri2-12" value="Header" style="text;html=1;align=center;verticalAlign=middle;resizable=0;points=[];autosize=1;strokeColor=none;fillColor=none;fontStyle=1;fontSize=19;" parent="1" vertex="1">
                    <mxGeometry x="110" y="25" width="90" height="40" as="geometry"/>
                </mxCell>
                <mxCell id="Tx7A0U5lQLEVlmWzFri2-13" value="" style="whiteSpace=wrap;html=1;aspect=fixed;fillColor=#f8cecc;strokeColor=#b85450;gradientColor=#ea6b66;" parent="1" vertex="1">
                    <mxGeometry x="80" y="70" width="30" height="30" as="geometry"/>
                </mxCell>
                <mxCell id="Tx7A0U5lQLEVlmWzFri2-14" value="Body" style="text;html=1;align=center;verticalAlign=middle;resizable=0;points=[];autosize=1;strokeColor=none;fillColor=none;fontStyle=1;fontSize=19;" parent="1" vertex="1">
                    <mxGeometry x="120" y="65" width="70" height="40" as="geometry"/>
                </mxCell>
                <mxCell id="Tx7A0U5lQLEVlmWzFri2-15" value="" style="whiteSpace=wrap;html=1;aspect=fixed;fillColor=#d5e8d4;strokeColor=#82b366;gradientColor=#97d077;" parent="1" vertex="1">
                    <mxGeometry x="80" y="110" width="30" height="30" as="geometry"/>
                </mxCell>
                <mxCell id="Tx7A0U5lQLEVlmWzFri2-16" value="Footer" style="text;html=1;align=center;verticalAlign=middle;resizable=0;points=[];autosize=1;strokeColor=none;fillColor=none;fontStyle=1;fontSize=19;" parent="1" vertex="1">
                    <mxGeometry x="115" y="105" width="80" height="40" as="geometry"/>
                </mxCell>
                <mxCell id="Tx7A0U5lQLEVlmWzFri2-17" value="" style="whiteSpace=wrap;html=1;aspect=fixed;fillColor=#e3c800;fontColor=#000000;strokeColor=#B09500;" parent="1" vertex="1">
                    <mxGeometry x="250" y="30" width="30" height="30" as="geometry"/>
                </mxCell>
                <mxCell id="Tx7A0U5lQLEVlmWzFri2-18" value="Header" style="text;html=1;align=center;verticalAlign=middle;resizable=0;points=[];autosize=1;strokeColor=none;fillColor=none;fontStyle=1;fontSize=19;" parent="1" vertex="1">
                    <mxGeometry x="280" y="25" width="90" height="40" as="geometry"/>
                </mxCell>
                <mxCell id="Tx7A0U5lQLEVlmWzFri2-19" value="" style="whiteSpace=wrap;html=1;aspect=fixed;fillColor=#e3c800;fontColor=#000000;strokeColor=#B09500;" parent="1" vertex="1">
                    <mxGeometry x="250" y="70" width="30" height="30" as="geometry"/>
                </mxCell>
                <mxCell id="Tx7A0U5lQLEVlmWzFri2-20" value="Header" style="text;html=1;align=center;verticalAlign=middle;resizable=0;points=[];autosize=1;strokeColor=none;fillColor=none;fontStyle=1;fontSize=19;" parent="1" vertex="1">
                    <mxGeometry x="280" y="65" width="90" height="40" as="geometry"/>
                </mxCell>
                <mxCell id="Tx7A0U5lQLEVlmWzFri2-22" value="" style="rounded=0;whiteSpace=wrap;html=1;fontSize=19;gradientColor=#97d077;fillColor=#d5e8d4;strokeColor=#82b366;" parent="1" vertex="1">
                    <mxGeometry x="90" y="855" width="680" height="135" as="geometry"/>
                </mxCell>
                <mxCell id="Tx7A0U5lQLEVlmWzFri2-23" value="LOGO" style="rounded=0;whiteSpace=wrap;html=1;fontSize=19;gradientColor=none;" parent="1" vertex="1">
                    <mxGeometry x="110" y="228" width="120" height="60" as="geometry"/>
                </mxCell>
                <mxCell id="Tx7A0U5lQLEVlmWzFri2-24" value="" style="rounded=0;whiteSpace=wrap;html=1;fontSize=19;gradientColor=none;" parent="1" vertex="1">
                    <mxGeometry x="530" y="228" width="210" height="60" as="geometry"/>
                </mxCell>
                <mxCell id="Tx7A0U5lQLEVlmWzFri2-25" value="" style="whiteSpace=wrap;html=1;aspect=fixed;fontSize=19;gradientColor=none;" parent="1" vertex="1">
                    <mxGeometry x="540" y="242.5" width="30" height="30" as="geometry"/>
                </mxCell>
                <mxCell id="Tx7A0U5lQLEVlmWzFri2-26" value="" style="whiteSpace=wrap;html=1;aspect=fixed;fontSize=19;gradientColor=none;" parent="1" vertex="1">
                    <mxGeometry x="590" y="243" width="30" height="30" as="geometry"/>
                </mxCell>
                <mxCell id="Tx7A0U5lQLEVlmWzFri2-27" value="" style="whiteSpace=wrap;html=1;aspect=fixed;fontSize=19;gradientColor=none;" parent="1" vertex="1">
                    <mxGeometry x="640" y="243" width="30" height="30" as="geometry"/>
                </mxCell>
                <mxCell id="Tx7A0U5lQLEVlmWzFri2-28" value="" style="whiteSpace=wrap;html=1;aspect=fixed;fontSize=19;gradientColor=none;" parent="1" vertex="1">
                    <mxGeometry x="690" y="242.5" width="30" height="30" as="geometry"/>
                </mxCell>
                <mxCell id="Tx7A0U5lQLEVlmWzFri2-30" value="Restaurant Card" style="whiteSpace=wrap;html=1;aspect=fixed;fontSize=19;gradientColor=none;" parent="1" vertex="1">
                    <mxGeometry x="120" y="350" width="140" height="140" as="geometry"/>
                </mxCell>
                <mxCell id="Tx7A0U5lQLEVlmWzFri2-31" value="&lt;meta charset=&quot;utf-8&quot;&gt;&lt;span style=&quot;color: rgb(240, 240, 240); font-family: Helvetica; font-size: 19px; font-style: normal; font-variant-ligatures: normal; font-variant-caps: normal; font-weight: 400; letter-spacing: normal; orphans: 2; text-align: center; text-indent: 0px; text-transform: none; widows: 2; word-spacing: 0px; -webkit-text-stroke-width: 0px; background-color: rgb(42, 37, 47); text-decoration-thickness: initial; text-decoration-style: initial; text-decoration-color: initial; float: none; display: inline !important;&quot;&gt;Restaurant Card&lt;/span&gt;" style="whiteSpace=wrap;html=1;aspect=fixed;fontSize=19;gradientColor=none;" parent="1" vertex="1">
                    <mxGeometry x="290" y="350" width="140" height="140" as="geometry"/>
                </mxCell>
                <mxCell id="Tx7A0U5lQLEVlmWzFri2-32" value="&lt;meta charset=&quot;utf-8&quot;&gt;&lt;span style=&quot;color: rgb(240, 240, 240); font-family: Helvetica; font-size: 19px; font-style: normal; font-variant-ligatures: normal; font-variant-caps: normal; font-weight: 400; letter-spacing: normal; orphans: 2; text-align: center; text-indent: 0px; text-transform: none; widows: 2; word-spacing: 0px; -webkit-text-stroke-width: 0px; background-color: rgb(42, 37, 47); text-decoration-thickness: initial; text-decoration-style: initial; text-decoration-color: initial; float: none; display: inline !important;&quot;&gt;Restaurant Card&lt;/span&gt;" style="whiteSpace=wrap;html=1;aspect=fixed;fontSize=19;gradientColor=none;" parent="1" vertex="1">
                    <mxGeometry x="460" y="350" width="140" height="140" as="geometry"/>
                </mxCell>
                <mxCell id="Tx7A0U5lQLEVlmWzFri2-33" value="&lt;meta charset=&quot;utf-8&quot;&gt;&lt;span style=&quot;color: rgb(240, 240, 240); font-family: Helvetica; font-size: 19px; font-style: normal; font-variant-ligatures: normal; font-variant-caps: normal; font-weight: 400; letter-spacing: normal; orphans: 2; text-align: center; text-indent: 0px; text-transform: none; widows: 2; word-spacing: 0px; -webkit-text-stroke-width: 0px; background-color: rgb(42, 37, 47); text-decoration-thickness: initial; text-decoration-style: initial; text-decoration-color: initial; float: none; display: inline !important;&quot;&gt;Restaurant Card&lt;/span&gt;" style="whiteSpace=wrap;html=1;aspect=fixed;fontSize=19;gradientColor=none;" parent="1" vertex="1">
                    <mxGeometry x="120" y="510" width="140" height="140" as="geometry"/>
                </mxCell>
            </root>
        </mxGraphModel>
    </diagram>
</mxfile>